<svg version="1.1" xmlns="http://www.w3.org/2000/svg" xmlns:xlink="http://www.w3.org/1999/xlink" xmlns:i="http://ns.adobe.com/AdobeIllustrator/10.0/" xmlns:sketch="http://www.bohemiancoding.com/sketch/ns" height="100%" width="100%" x="0px" y="0px" viewBox="0 0 640 480" xml:space="preserve" preserveAspectRatio="xMidYMid meet" class=""><rect x="0px" y="0px" width="100%" height="100%" fill="#0a6a73"></rect><g class="logo-container-box logoContainerBox" transform="scale(0.99) translate(3.2323232323232105,2.4242424242424363)"><g class="containerBody" transform="scale(1.12) translate(-34.285714285714334,-17.53428540910994)"><g class="sampleIconBox" transform="scale(1) translate(0,0)"><g class="sampleIcons_1" transform="scale(6.25) translate(35.2,8.864000000000004)" fill="#f9ec4b"><g><g><g><rect x="13" y="13" width="6" height="6"></rect><path d="M28,12v-2h-3.6c-0.2-1.3-1.2-2.2-2.4-2.4V4h-2v3.5h-3V4h-2v3.5h-3V4h-2v3.6C8.7,7.8,7.8,8.7,7.6,10H4v2h3.5v3H4v2h3.5v3H4    v2h3.6c0.2,1.3,1.2,2.2,2.4,2.4V28h2v-3.5h3V28h2v-3.5h3V28h2v-3.6c1.3-0.2,2.2-1.2,2.4-2.4H28v-2h-3.5v-3H28v-2h-3.5v-3H28z     M22.5,21.5c0,0.6-0.4,1-1,1h-11c-0.6,0-1-0.4-1-1v-11c0-0.6,0.4-1,1-1h11c0.6,0,1,0.4,1,1V21.5z"></path></g></g></g></g></g><g class="sampleTexts_1" transform="scale(1) translate(0,56.839990234374994)"><g class="logo--name svgLogoName_1 logoNameBox1" transform="scale(1) translate(271.41500091552734,249.58000030517576)" fill="#ffffff"><path d="M22.30-40.56L26.03-40.56L26.03-44.64L26.03-44.64Q26.03-47.85 23.74-50.13L23.74-50.13L23.74-50.13Q21.46-52.45 18.22-52.45L18.22-52.45L14.17-52.45L14.17-52.45Q10.93-52.45 8.65-50.13L8.65-50.13L8.65-50.13Q6.37-47.85 6.37-44.64L6.37-44.64L6.37-12.17L6.37-12.17Q6.37-8.93 8.65-6.65L8.65-6.65L8.65-6.65Q10.93-4.36 14.17-4.36L14.17-4.36L18.22-4.36L18.22-4.36Q21.46-4.36 23.74-6.65L23.74-6.65L23.74-6.65Q26.03-8.93 26.03-12.17L26.03-12.17L26.03-28.11L16.22-28.11L16.22-24.34L22.30-24.34L22.30-12.17L22.30-12.17Q22.30-10.49 21.10-9.29L21.10-9.29L21.10-9.29Q19.90-8.13 18.22-8.13L18.22-8.13L14.17-8.13L14.17-8.13Q12.49-8.13 11.29-9.29L11.29-9.29L11.29-9.29Q10.13-10.49 10.13-12.17L10.13-12.17L10.13-44.64L10.13-44.64Q10.13-46.33 11.29-47.49L11.29-47.49L11.29-47.49Q12.49-48.69 14.17-48.69L14.17-48.69L18.22-48.69L18.22-48.69Q19.90-48.69 21.10-47.49L21.10-47.49L21.10-47.49Q22.30-46.33 22.30-44.64L22.30-44.64L22.30-40.56ZM26.67-40.56L30.39-40.56L30.39-44.64L30.39-44.64Q30.39-49.65 26.83-53.21L26.83-53.21L26.83-53.21Q23.26-56.82 18.22-56.82L18.22-56.82L14.17-56.82L14.17-56.82Q9.13-56.82 5.57-53.21L5.57-53.21L5.57-53.21Q2.00-49.65 2.00-44.64L2.00-44.64L2.00-12.17L2.00-12.17Q2.00-7.13 5.57-3.56L5.57-3.56L5.57-3.56Q9.13 0 14.17 0L14.17 0L18.22 0L18.22 0Q23.26 0 26.83-3.56L26.83-3.56L26.83-3.56Q30.39-7.13 30.39-12.17L30.39-12.17L30.39-32.47L16.22-32.47L16.22-28.71L26.67-28.71L26.67-12.17L26.67-12.17Q26.67-8.69 24.18-6.21L24.18-6.21L24.18-6.21Q21.70-3.76 18.22-3.76L18.22-3.76L14.17-3.76L14.17-3.76Q10.69-3.76 8.21-6.21L8.21-6.21L8.21-6.21Q5.77-8.69 5.77-12.17L5.77-12.17L5.77-44.64L5.77-44.64Q5.77-48.13 8.21-50.57L8.21-50.57L8.21-50.57Q10.69-53.05 14.17-53.05L14.17-53.05L18.22-53.05L18.22-53.05Q21.70-53.05 24.18-50.57L24.18-50.57L24.18-50.57Q26.67-48.13 26.67-44.64L26.67-44.64L26.67-40.56ZM50.61-56.82L34.39-56.82L34.39 0L38.16 0L38.16-53.05L50.61-53.05L50.61-53.05Q54.09-53.05 56.58-50.57L56.58-50.57L56.58-50.57Q59.06-48.13 59.06-44.64L59.06-44.64L59.06-36.52L59.06-36.52Q59.06-33.03 56.58-30.55L56.58-30.55L56.58-30.55Q54.09-28.11 50.61-28.11L50.61-28.11L38.76-28.11L38.76 0L42.52 0L42.52-24.34L50.61-24.34L50.61-24.34Q55.65-24.34 59.22-27.91L59.22-27.91L59.22-27.91Q62.78-31.47 62.78-36.52L62.78-36.52L62.78-44.64L62.78-44.64Q62.78-49.65 59.22-53.21L59.22-53.21L59.22-53.21Q55.65-56.82 50.61-56.82L50.61-56.82ZM42.52-32.47L42.52-48.69L50.61-48.69L50.61-48.69Q52.29-48.69 53.49-47.49L53.49-47.49L53.49-47.49Q54.69-46.33 54.69-44.64L54.69-44.64L54.69-36.52L54.69-36.52Q54.69-34.83 53.49-33.63L53.49-33.63L53.49-33.63Q52.29-32.47 50.61-32.47L50.61-32.47L42.52-32.47ZM58.42-36.52L58.42-44.64L58.42-44.64Q58.42-47.85 56.13-50.13L56.13-50.13L56.13-50.13Q53.85-52.45 50.61-52.45L50.61-52.45L38.76-52.45L38.76-28.71L50.61-28.71L50.61-28.71Q53.85-28.71 56.13-30.99L56.13-30.99L56.13-30.99Q58.42-33.27 58.42-36.52L58.42-36.52ZM78.96-4.36L83.00-4.36L83.00-4.36Q86.24-4.36 88.53-6.65L88.53-6.65L88.53-6.65Q90.81-8.93 90.81-12.17L90.81-12.17L90.81-56.82L87.08-56.82L87.08-12.17L87.08-12.17Q87.08-10.49 85.88-9.29L85.88-9.29L85.88-9.29Q84.68-8.13 83.00-8.13L83.00-8.13L78.96-8.13L78.96-8.13Q77.28-8.13 76.07-9.29L76.07-9.29L76.07-9.29Q74.91-10.49 74.91-12.17L74.91-12.17L74.91-56.82L71.15-56.82L71.15-12.17L71.15-12.17Q71.15-8.93 73.43-6.65L73.43-6.65L73.43-6.65Q75.71-4.36 78.96-4.36L78.96-4.36ZM95.17-56.82L91.45-56.82L91.45-12.17L91.45-12.17Q91.45-8.69 88.97-6.21L88.97-6.21L88.97-6.21Q86.48-3.76 83.00-3.76L83.00-3.76L78.96-3.76L78.96-3.76Q75.47-3.76 72.99-6.21L72.99-6.21L72.99-6.21Q70.55-8.69 70.55-12.17L70.55-12.17L70.55-56.82L66.79-56.82L66.79-12.17L66.79-12.17Q66.79-7.13 70.35-3.56L70.35-3.56L70.35-3.56Q73.91 0 78.96 0L78.96 0L83.00 0L83.00 0Q88.05 0 91.61-3.56L91.61-3.56L91.61-3.56Q95.17-7.13 95.17-12.17L95.17-12.17L95.17-56.82Z"></path></g><g class="logo--name svgLogoName_2 logoNameBox2" transform="scale(1) translate(220.78500366210938,326.4)" fill="#ffffff"><path d="M22.30-20.30L22.30-12.17L22.30-12.17Q22.30-10.49 21.10-9.29L21.10-9.29L21.10-9.29Q19.90-8.13 18.22-8.13L18.22-8.13L10.13-8.13L10.13-24.34L18.22-24.34L18.22-24.34Q19.90-24.34 21.10-23.14L21.10-23.14L21.10-23.14Q22.30-21.98 22.30-20.30L22.30-20.30ZM18.22-28.11L6.37-28.11L6.37-4.36L18.22-4.36L18.22-4.36Q21.46-4.36 23.74-6.65L23.74-6.65L23.74-6.65Q26.03-8.93 26.03-12.17L26.03-12.17L26.03-20.30L26.03-20.30Q26.03-23.50 23.74-25.83L23.74-25.83L23.74-25.83Q21.46-28.11 18.22-28.11L18.22-28.11ZM26.67-44.64L26.67-36.52L26.67-36.52Q26.67-33.63 24.90-31.39L24.90-31.39L24.90-31.39Q23.18-29.15 20.46-28.39L20.46-28.39L20.46-28.39Q23.18-27.67 24.90-25.42L24.90-25.42L24.90-25.42Q26.67-23.14 26.67-20.30L26.67-20.30L26.67-12.17L26.67-12.17Q26.67-8.69 24.18-6.21L24.18-6.21L24.18-6.21Q21.70-3.76 18.22-3.76L18.22-3.76L5.77-3.76L5.77-53.05L18.22-53.05L18.22-53.05Q21.70-53.05 24.18-50.57L24.18-50.57L24.18-50.57Q26.67-48.13 26.67-44.64L26.67-44.64ZM30.39-36.52L30.39-44.64L30.39-44.64Q30.39-49.65 26.83-53.21L26.83-53.21L26.83-53.21Q23.26-56.82 18.22-56.82L18.22-56.82L2.00-56.82L2.00 0L18.22 0L18.22 0Q23.26 0 26.83-3.56L26.83-3.56L26.83-3.56Q30.39-7.13 30.39-12.17L30.39-12.17L30.39-20.30L30.39-20.30Q30.39-24.94 27.31-28.39L27.31-28.39L27.31-28.39Q30.39-31.87 30.39-36.52L30.39-36.52ZM22.30-44.64L22.30-36.52L22.30-36.52Q22.30-34.83 21.10-33.63L21.10-33.63L21.10-33.63Q19.90-32.47 18.22-32.47L18.22-32.47L10.13-32.47L10.13-48.69L18.22-48.69L18.22-48.69Q19.90-48.69 21.10-47.49L21.10-47.49L21.10-47.49Q22.30-46.33 22.30-44.64L22.30-44.64ZM18.22-52.45L6.37-52.45L6.37-28.71L18.22-28.71L18.22-28.71Q21.46-28.71 23.74-30.99L23.74-30.99L23.74-30.99Q26.03-33.27 26.03-36.52L26.03-36.52L26.03-44.64L26.03-44.64Q26.03-47.85 23.74-50.13L23.74-50.13L23.74-50.13Q21.46-52.45 18.22-52.45L18.22-52.45ZM57.06-15.94L41.08-15.94L38.80 0L42.60 0L44.32-12.17L53.81-12.17L55.53 0L59.34 0L57.06-15.94ZM55.61-56.82L42.52-56.82L34.39 0L38.20 0L45.76-53.05L52.37-53.05L59.94 0L63.74 0L55.61-56.82ZM52.65-20.30L45.48-20.30L49.09-45.36L52.65-20.30ZM51.85-52.45L46.29-52.45L41.16-16.54L56.98-16.54L51.85-52.45ZM91.65-52.45L67.75-52.45L67.75-48.69L86.00-48.69L67.75-4.88L67.75 0L96.13 0L96.13-3.76L71.35-3.76L91.65-52.45ZM96.13-56.82L67.75-56.82L67.75-53.05L92.53-53.05L72.27-4.36L96.13-4.36L96.13-8.13L77.88-8.13L96.13-51.93L96.13-56.82ZM124.04-52.45L100.14-52.45L100.14-48.69L118.40-48.69L100.14-4.88L100.14 0L128.53 0L128.53-3.76L103.74-3.76L124.04-52.45ZM128.53-56.82L100.14-56.82L100.14-53.05L124.92-53.05L104.66-4.36L128.53-4.36L128.53-8.13L110.27-8.13L128.53-51.93L128.53-56.82ZM155.19-15.94L139.22-15.94L136.93 0L140.74 0L142.46-12.17L151.95-12.17L153.67 0L157.47 0L155.19-15.94ZM153.75-56.82L140.66-56.82L132.53 0L136.33 0L143.90-53.05L150.51-53.05L158.07 0L161.88 0L153.75-56.82ZM150.79-20.30L143.62-20.30L147.22-45.36L150.79-20.30ZM149.99-52.45L144.42-52.45L139.30-16.54L155.11-16.54L149.99-52.45ZM179.90-28.11L170.25-28.11L170.25 0L174.01 0L174.01-24.34L177.37-24.34L187.62 0L191.71 0L179.90-28.11ZM196.43 0L185.94-24.94L185.94-24.94Q189.63-26.19 191.91-29.31L191.91-29.31L191.91-29.31Q194.27-32.51 194.27-36.52L194.27-36.52L194.27-44.64L194.27-44.64Q194.27-49.65 190.71-53.21L190.71-53.21L190.71-53.21Q187.14-56.82 182.10-56.82L182.10-56.82L165.88-56.82L165.88 0L169.65 0L169.65-53.05L182.10-53.05L182.10-53.05Q185.58-53.05 188.06-50.57L188.06-50.57L188.06-50.57Q190.55-48.13 190.55-44.64L190.55-44.64L190.55-36.52L190.55-36.52Q190.55-33.03 188.06-30.55L188.06-30.55L188.06-30.55Q185.58-28.11 182.10-28.11L182.10-28.11L180.54-28.11L192.39 0L196.43 0ZM174.01-32.47L174.01-48.69L182.10-48.69L182.10-48.69Q183.78-48.69 184.98-47.49L184.98-47.49L184.98-47.49Q186.18-46.33 186.18-44.64L186.18-44.64L186.18-36.52L186.18-36.52Q186.18-34.83 184.98-33.63L184.98-33.63L184.98-33.63Q183.78-32.47 182.10-32.47L182.10-32.47L174.01-32.47ZM189.91-36.52L189.91-44.64L189.91-44.64Q189.91-47.85 187.62-50.13L187.62-50.13L187.62-50.13Q185.34-52.45 182.10-52.45L182.10-52.45L170.25-52.45L170.25-28.71L182.10-28.71L182.10-28.71Q185.34-28.71 187.62-30.99L187.62-30.99L187.62-30.99Q189.91-33.27 189.91-36.52L189.91-36.52Z"></path></g><g id="" class="logo--name svgSloganText_1 sloganBox" transform="scale(1) translate(320,345.6)" fill="#f9ec4b"></g></g></g></g></svg>